<svg width="24" height="30" viewBox="0 0 24 30" fill="none" xmlns="http://www.w3.org/2000/svg">
<g id="Icons / visibility">
<path id="eye" d="M12 6.10718C7 6.10718 2.73 9.76344 1 14.9245C2.73 20.0856 7 23.7419 12 23.7419C17 23.7419 21.27 20.0856 23 14.9245C21.27 9.76344 17 6.10718 12 6.10718ZM12 20.8028C9.24 20.8028 7 18.1693 7 14.9245C7 11.6797 9.24 9.04629 12 9.04629C14.76 9.04629 17 11.6797 17 14.9245C17 18.1693 14.76 20.8028 12 20.8028ZM12 11.3976C10.34 11.3976 9 12.973 9 14.9245C9 16.8761 10.34 18.4515 12 18.4515C13.66 18.4515 15 16.8761 15 14.9245C15 12.973 13.66 11.3976 12 11.3976Z" fill="black" fill-opacity="0.54"/>
</g>
</svg>
